<mxfile host="app.diagrams.net" agent="Mozilla/5.0 (Windows NT 10.0; Win64; x64) AppleWebKit/537.36 (KHTML, like Gecko) Chrome/128.0.0.0 Safari/537.36 OPR/114.0.0.0" version="24.8.1">
  <diagram id="R2lEEEUBdFMjLlhIrx00" name="Page-1">
    <mxGraphModel dx="952" dy="515" grid="1" gridSize="10" guides="1" tooltips="1" connect="1" arrows="1" fold="1" page="1" pageScale="1" pageWidth="850" pageHeight="1100" math="0" shadow="0" extFonts="Permanent Marker^https://fonts.googleapis.com/css?family=Permanent+Marker">
      <root>
        <mxCell id="0" />
        <mxCell id="1" parent="0" />
        <mxCell id="mNAdpkyLPHyZynbctfEx-4" style="edgeStyle=orthogonalEdgeStyle;rounded=0;orthogonalLoop=1;jettySize=auto;html=1;entryX=1;entryY=0.5;entryDx=0;entryDy=0;strokeColor=#DDA15E;fontColor=#FEFAE0;fillColor=#BC6C25;" edge="1" parent="1" source="mNAdpkyLPHyZynbctfEx-1" target="mNAdpkyLPHyZynbctfEx-3">
          <mxGeometry relative="1" as="geometry" />
        </mxCell>
        <mxCell id="mNAdpkyLPHyZynbctfEx-5" style="edgeStyle=orthogonalEdgeStyle;rounded=0;orthogonalLoop=1;jettySize=auto;html=1;entryX=0.5;entryY=1;entryDx=0;entryDy=0;strokeColor=#DDA15E;fontColor=#FEFAE0;fillColor=#BC6C25;" edge="1" parent="1" source="mNAdpkyLPHyZynbctfEx-1" target="mNAdpkyLPHyZynbctfEx-2">
          <mxGeometry relative="1" as="geometry" />
        </mxCell>
        <mxCell id="mNAdpkyLPHyZynbctfEx-1" value="branch" style="whiteSpace=wrap;html=1;align=center;labelBackgroundColor=none;fillColor=#BC6C25;strokeColor=#DDA15E;fontColor=#FEFAE0;" vertex="1" parent="1">
          <mxGeometry x="180" y="240" width="100" height="40" as="geometry" />
        </mxCell>
        <mxCell id="mNAdpkyLPHyZynbctfEx-2" value="branch_name" style="ellipse;whiteSpace=wrap;html=1;align=center;strokeColor=#DDA15E;fontColor=#FEFAE0;fillColor=#BC6C25;" vertex="1" parent="1">
          <mxGeometry x="80" y="180" width="100" height="40" as="geometry" />
        </mxCell>
        <mxCell id="mNAdpkyLPHyZynbctfEx-3" value="branch_id" style="ellipse;whiteSpace=wrap;html=1;align=center;fontStyle=4;strokeColor=#DDA15E;fontColor=#FEFAE0;fillColor=#BC6C25;" vertex="1" parent="1">
          <mxGeometry x="20" y="250" width="100" height="40" as="geometry" />
        </mxCell>
        <mxCell id="mNAdpkyLPHyZynbctfEx-10" style="edgeStyle=orthogonalEdgeStyle;rounded=0;orthogonalLoop=1;jettySize=auto;html=1;strokeColor=#DDA15E;fontColor=#FEFAE0;fillColor=#BC6C25;" edge="1" parent="1" source="mNAdpkyLPHyZynbctfEx-6" target="mNAdpkyLPHyZynbctfEx-7">
          <mxGeometry relative="1" as="geometry" />
        </mxCell>
        <mxCell id="mNAdpkyLPHyZynbctfEx-11" style="edgeStyle=orthogonalEdgeStyle;rounded=0;orthogonalLoop=1;jettySize=auto;html=1;entryX=0.5;entryY=0;entryDx=0;entryDy=0;strokeColor=#DDA15E;fontColor=#FEFAE0;fillColor=#BC6C25;" edge="1" parent="1" source="mNAdpkyLPHyZynbctfEx-6" target="mNAdpkyLPHyZynbctfEx-8">
          <mxGeometry relative="1" as="geometry" />
        </mxCell>
        <mxCell id="mNAdpkyLPHyZynbctfEx-6" value="client" style="whiteSpace=wrap;html=1;align=center;strokeColor=#DDA15E;fontColor=#FEFAE0;fillColor=#BC6C25;" vertex="1" parent="1">
          <mxGeometry x="360" y="370" width="100" height="40" as="geometry" />
        </mxCell>
        <mxCell id="mNAdpkyLPHyZynbctfEx-7" value="client_name" style="ellipse;whiteSpace=wrap;html=1;align=center;strokeColor=#DDA15E;fontColor=#FEFAE0;fillColor=#BC6C25;" vertex="1" parent="1">
          <mxGeometry x="270" y="440" width="100" height="40" as="geometry" />
        </mxCell>
        <mxCell id="mNAdpkyLPHyZynbctfEx-8" value="client_id" style="ellipse;whiteSpace=wrap;html=1;align=center;fontStyle=4;strokeColor=#DDA15E;fontColor=#FEFAE0;fillColor=#BC6C25;" vertex="1" parent="1">
          <mxGeometry x="430" y="450" width="100" height="40" as="geometry" />
        </mxCell>
        <mxCell id="mNAdpkyLPHyZynbctfEx-14" style="edgeStyle=orthogonalEdgeStyle;rounded=0;orthogonalLoop=1;jettySize=auto;html=1;entryX=0.5;entryY=1;entryDx=0;entryDy=0;strokeColor=#DDA15E;fontColor=#FEFAE0;fillColor=#BC6C25;" edge="1" parent="1" source="mNAdpkyLPHyZynbctfEx-12" target="mNAdpkyLPHyZynbctfEx-13">
          <mxGeometry relative="1" as="geometry" />
        </mxCell>
        <mxCell id="mNAdpkyLPHyZynbctfEx-19" style="edgeStyle=orthogonalEdgeStyle;rounded=0;orthogonalLoop=1;jettySize=auto;html=1;strokeColor=#DDA15E;fontColor=#FEFAE0;fillColor=#BC6C25;" edge="1" parent="1" source="mNAdpkyLPHyZynbctfEx-12" target="mNAdpkyLPHyZynbctfEx-16">
          <mxGeometry relative="1" as="geometry" />
        </mxCell>
        <mxCell id="mNAdpkyLPHyZynbctfEx-21" style="edgeStyle=orthogonalEdgeStyle;rounded=0;orthogonalLoop=1;jettySize=auto;html=1;strokeColor=#DDA15E;fontColor=#FEFAE0;fillColor=#BC6C25;" edge="1" parent="1" source="mNAdpkyLPHyZynbctfEx-12" target="mNAdpkyLPHyZynbctfEx-17">
          <mxGeometry relative="1" as="geometry">
            <mxPoint x="680" y="150" as="targetPoint" />
          </mxGeometry>
        </mxCell>
        <mxCell id="mNAdpkyLPHyZynbctfEx-25" style="edgeStyle=orthogonalEdgeStyle;rounded=0;orthogonalLoop=1;jettySize=auto;html=1;entryX=0.5;entryY=1;entryDx=0;entryDy=0;strokeColor=#DDA15E;fontColor=#FEFAE0;fillColor=#BC6C25;" edge="1" parent="1" source="mNAdpkyLPHyZynbctfEx-12" target="mNAdpkyLPHyZynbctfEx-22">
          <mxGeometry relative="1" as="geometry" />
        </mxCell>
        <mxCell id="mNAdpkyLPHyZynbctfEx-29" style="edgeStyle=orthogonalEdgeStyle;rounded=0;orthogonalLoop=1;jettySize=auto;html=1;entryX=1;entryY=0.5;entryDx=0;entryDy=0;strokeColor=#DDA15E;fontColor=#FEFAE0;fillColor=#BC6C25;" edge="1" parent="1" source="mNAdpkyLPHyZynbctfEx-12" target="mNAdpkyLPHyZynbctfEx-28">
          <mxGeometry relative="1" as="geometry" />
        </mxCell>
        <mxCell id="mNAdpkyLPHyZynbctfEx-12" value="employee" style="whiteSpace=wrap;html=1;align=center;strokeColor=#DDA15E;fontColor=#FEFAE0;fillColor=#BC6C25;" vertex="1" parent="1">
          <mxGeometry x="610" y="230" width="100" height="40" as="geometry" />
        </mxCell>
        <mxCell id="mNAdpkyLPHyZynbctfEx-13" value="emp_id" style="ellipse;whiteSpace=wrap;html=1;align=center;fontStyle=4;strokeColor=#DDA15E;fontColor=#FEFAE0;fillColor=#BC6C25;" vertex="1" parent="1">
          <mxGeometry x="520" y="160" width="70" height="40" as="geometry" />
        </mxCell>
        <mxCell id="mNAdpkyLPHyZynbctfEx-15" value="birth_date" style="ellipse;whiteSpace=wrap;html=1;align=center;strokeColor=#DDA15E;fontColor=#FEFAE0;fillColor=#BC6C25;" vertex="1" parent="1">
          <mxGeometry x="550" y="120" width="60" height="40" as="geometry" />
        </mxCell>
        <mxCell id="mNAdpkyLPHyZynbctfEx-16" value="salary" style="ellipse;whiteSpace=wrap;html=1;align=center;strokeColor=#DDA15E;fontColor=#FEFAE0;fillColor=#BC6C25;" vertex="1" parent="1">
          <mxGeometry x="710" y="140" width="50" height="30" as="geometry" />
        </mxCell>
        <mxCell id="mNAdpkyLPHyZynbctfEx-17" value="sex" style="ellipse;whiteSpace=wrap;html=1;align=center;strokeColor=#DDA15E;fontColor=#FEFAE0;fillColor=#BC6C25;" vertex="1" parent="1">
          <mxGeometry x="670" y="115" width="50" height="40" as="geometry" />
        </mxCell>
        <mxCell id="mNAdpkyLPHyZynbctfEx-18" style="edgeStyle=orthogonalEdgeStyle;rounded=0;orthogonalLoop=1;jettySize=auto;html=1;entryX=0.728;entryY=0.884;entryDx=0;entryDy=0;entryPerimeter=0;strokeColor=#DDA15E;fontColor=#FEFAE0;fillColor=#BC6C25;" edge="1" parent="1" source="mNAdpkyLPHyZynbctfEx-12" target="mNAdpkyLPHyZynbctfEx-15">
          <mxGeometry relative="1" as="geometry" />
        </mxCell>
        <mxCell id="mNAdpkyLPHyZynbctfEx-26" style="edgeStyle=orthogonalEdgeStyle;rounded=0;orthogonalLoop=1;jettySize=auto;html=1;strokeColor=#DDA15E;fontColor=#FEFAE0;fillColor=#BC6C25;" edge="1" parent="1" source="mNAdpkyLPHyZynbctfEx-22" target="mNAdpkyLPHyZynbctfEx-23">
          <mxGeometry relative="1" as="geometry" />
        </mxCell>
        <mxCell id="mNAdpkyLPHyZynbctfEx-27" style="edgeStyle=orthogonalEdgeStyle;rounded=0;orthogonalLoop=1;jettySize=auto;html=1;strokeColor=#DDA15E;fontColor=#FEFAE0;fillColor=#BC6C25;" edge="1" parent="1" source="mNAdpkyLPHyZynbctfEx-22" target="mNAdpkyLPHyZynbctfEx-24">
          <mxGeometry relative="1" as="geometry" />
        </mxCell>
        <mxCell id="mNAdpkyLPHyZynbctfEx-22" value="name" style="ellipse;whiteSpace=wrap;html=1;align=center;strokeColor=#DDA15E;fontColor=#FEFAE0;fillColor=#BC6C25;" vertex="1" parent="1">
          <mxGeometry x="630" y="90" width="50" height="40" as="geometry" />
        </mxCell>
        <mxCell id="mNAdpkyLPHyZynbctfEx-23" value="first_name" style="ellipse;whiteSpace=wrap;html=1;align=center;strokeColor=#DDA15E;fontColor=#FEFAE0;fillColor=#BC6C25;" vertex="1" parent="1">
          <mxGeometry x="530" y="40" width="100" height="40" as="geometry" />
        </mxCell>
        <mxCell id="mNAdpkyLPHyZynbctfEx-24" value="last_name" style="ellipse;whiteSpace=wrap;html=1;align=center;strokeColor=#DDA15E;fontColor=#FEFAE0;fillColor=#BC6C25;" vertex="1" parent="1">
          <mxGeometry x="690" y="40" width="100" height="40" as="geometry" />
        </mxCell>
        <mxCell id="mNAdpkyLPHyZynbctfEx-28" value="age" style="ellipse;whiteSpace=wrap;html=1;align=center;dashed=1;strokeColor=#DDA15E;fontColor=#FEFAE0;fillColor=#BC6C25;" vertex="1" parent="1">
          <mxGeometry x="550" y="280" width="40" height="30" as="geometry" />
        </mxCell>
        <mxCell id="mNAdpkyLPHyZynbctfEx-30" value="works_for" style="shape=rhombus;perimeter=rhombusPerimeter;whiteSpace=wrap;html=1;align=center;strokeColor=#DDA15E;fontColor=#FEFAE0;fillColor=#BC6C25;" vertex="1" parent="1">
          <mxGeometry x="393" y="160" width="65" height="50" as="geometry" />
        </mxCell>
        <mxCell id="mNAdpkyLPHyZynbctfEx-31" value="" style="shape=link;html=1;rounded=0;strokeColor=#DDA15E;fontColor=#FEFAE0;fillColor=#BC6C25;entryX=0;entryY=0.5;entryDx=0;entryDy=0;" edge="1" parent="1" target="mNAdpkyLPHyZynbctfEx-30">
          <mxGeometry relative="1" as="geometry">
            <mxPoint x="280" y="260" as="sourcePoint" />
            <mxPoint x="440" y="260" as="targetPoint" />
          </mxGeometry>
        </mxCell>
        <mxCell id="mNAdpkyLPHyZynbctfEx-32" value="1" style="resizable=0;html=1;whiteSpace=wrap;align=right;verticalAlign=bottom;strokeColor=#DDA15E;fontColor=#FEFAE0;fillColor=#BC6C25;" connectable="0" vertex="1" parent="mNAdpkyLPHyZynbctfEx-31">
          <mxGeometry x="1" relative="1" as="geometry" />
        </mxCell>
        <mxCell id="mNAdpkyLPHyZynbctfEx-33" value="" style="shape=link;html=1;rounded=0;strokeColor=#DDA15E;fontColor=#FEFAE0;fillColor=#BC6C25;entryX=1;entryY=0.5;entryDx=0;entryDy=0;" edge="1" parent="1" target="mNAdpkyLPHyZynbctfEx-30">
          <mxGeometry relative="1" as="geometry">
            <mxPoint x="610" y="240" as="sourcePoint" />
            <mxPoint x="500" y="210" as="targetPoint" />
          </mxGeometry>
        </mxCell>
        <mxCell id="mNAdpkyLPHyZynbctfEx-34" value="N" style="resizable=0;html=1;whiteSpace=wrap;align=right;verticalAlign=bottom;strokeColor=#DDA15E;fontColor=#FEFAE0;fillColor=#BC6C25;" connectable="0" vertex="1" parent="mNAdpkyLPHyZynbctfEx-33">
          <mxGeometry x="1" relative="1" as="geometry" />
        </mxCell>
        <mxCell id="mNAdpkyLPHyZynbctfEx-35" value="&lt;h6 style=&quot;font-size: 9px;&quot;&gt;branch can have any number of employees&lt;/h6&gt;" style="text;strokeColor=none;fillColor=none;html=1;fontSize=9;fontStyle=0;verticalAlign=middle;align=center;fontColor=#FEFAE0;" vertex="1" parent="1">
          <mxGeometry x="230" y="150" width="100" height="40" as="geometry" />
        </mxCell>
        <mxCell id="mNAdpkyLPHyZynbctfEx-36" value="&lt;h6 style=&quot;font-size: 9px; line-height: 0%;&quot;&gt;employee can have&amp;nbsp;&lt;/h6&gt;&lt;h6 style=&quot;font-size: 9px; line-height: 0%;&quot;&gt;only one branch&lt;/h6&gt;" style="text;strokeColor=none;fillColor=none;html=1;fontSize=9;fontStyle=0;verticalAlign=middle;align=center;fontColor=#FEFAE0;whiteSpace=wrap;" vertex="1" parent="1">
          <mxGeometry x="430" y="130" width="100" height="40" as="geometry" />
        </mxCell>
        <mxCell id="mNAdpkyLPHyZynbctfEx-48" style="edgeStyle=orthogonalEdgeStyle;rounded=0;orthogonalLoop=1;jettySize=auto;html=1;entryX=0;entryY=1;entryDx=0;entryDy=0;strokeColor=#DDA15E;fontColor=#FEFAE0;fillColor=#BC6C25;" edge="1" parent="1" source="mNAdpkyLPHyZynbctfEx-40" target="mNAdpkyLPHyZynbctfEx-47">
          <mxGeometry relative="1" as="geometry" />
        </mxCell>
        <mxCell id="mNAdpkyLPHyZynbctfEx-40" value="manages" style="shape=rhombus;perimeter=rhombusPerimeter;whiteSpace=wrap;html=1;align=center;strokeColor=#DDA15E;fontColor=#FEFAE0;fillColor=#BC6C25;" vertex="1" parent="1">
          <mxGeometry x="393" y="270" width="80" height="40" as="geometry" />
        </mxCell>
        <mxCell id="mNAdpkyLPHyZynbctfEx-41" value="" style="shape=link;html=1;rounded=0;strokeColor=#DDA15E;fontColor=#FEFAE0;fillColor=#BC6C25;entryX=0.087;entryY=0.5;entryDx=0;entryDy=0;entryPerimeter=0;" edge="1" parent="1" target="mNAdpkyLPHyZynbctfEx-40">
          <mxGeometry relative="1" as="geometry">
            <mxPoint x="280" y="259.65999999999997" as="sourcePoint" />
            <mxPoint x="440" y="259.65999999999997" as="targetPoint" />
          </mxGeometry>
        </mxCell>
        <mxCell id="mNAdpkyLPHyZynbctfEx-42" value="1" style="resizable=0;html=1;whiteSpace=wrap;align=right;verticalAlign=bottom;strokeColor=#DDA15E;fontColor=#FEFAE0;fillColor=#BC6C25;" connectable="0" vertex="1" parent="mNAdpkyLPHyZynbctfEx-41">
          <mxGeometry x="1" relative="1" as="geometry" />
        </mxCell>
        <mxCell id="mNAdpkyLPHyZynbctfEx-45" value="" style="endArrow=none;html=1;rounded=0;strokeColor=#DDA15E;fontColor=#FEFAE0;fillColor=#BC6C25;entryX=1;entryY=0.5;entryDx=0;entryDy=0;" edge="1" parent="1" target="mNAdpkyLPHyZynbctfEx-40">
          <mxGeometry relative="1" as="geometry">
            <mxPoint x="610" y="250" as="sourcePoint" />
            <mxPoint x="550" y="250" as="targetPoint" />
          </mxGeometry>
        </mxCell>
        <mxCell id="mNAdpkyLPHyZynbctfEx-46" value="1" style="resizable=0;html=1;whiteSpace=wrap;align=right;verticalAlign=bottom;strokeColor=#DDA15E;fontColor=#FEFAE0;fillColor=#BC6C25;" connectable="0" vertex="1" parent="mNAdpkyLPHyZynbctfEx-45">
          <mxGeometry x="1" relative="1" as="geometry" />
        </mxCell>
        <mxCell id="mNAdpkyLPHyZynbctfEx-47" value="start_date" style="ellipse;whiteSpace=wrap;html=1;align=center;strokeColor=#DDA15E;fontColor=#FEFAE0;fillColor=#BC6C25;" vertex="1" parent="1">
          <mxGeometry x="440" y="240" width="70" height="20" as="geometry" />
        </mxCell>
        <mxCell id="mNAdpkyLPHyZynbctfEx-49" value="supervision" style="shape=rhombus;perimeter=rhombusPerimeter;whiteSpace=wrap;html=1;align=center;strokeColor=#DDA15E;fontColor=#FEFAE0;fillColor=#BC6C25;" vertex="1" parent="1">
          <mxGeometry x="780" y="230" width="80" height="40" as="geometry" />
        </mxCell>
        <mxCell id="mNAdpkyLPHyZynbctfEx-50" value="supervisee" style="endArrow=none;html=1;rounded=0;strokeColor=#DDA15E;fontColor=#FEFAE0;fillColor=#BC6C25;exitX=1;exitY=0.5;exitDx=0;exitDy=0;" edge="1" parent="1" source="mNAdpkyLPHyZynbctfEx-12">
          <mxGeometry relative="1" as="geometry">
            <mxPoint x="720" y="260" as="sourcePoint" />
            <mxPoint x="820" y="230" as="targetPoint" />
          </mxGeometry>
        </mxCell>
        <mxCell id="mNAdpkyLPHyZynbctfEx-51" value="N" style="resizable=0;html=1;whiteSpace=wrap;align=right;verticalAlign=bottom;strokeColor=#DDA15E;fontColor=#FEFAE0;fillColor=#BC6C25;" connectable="0" vertex="1" parent="mNAdpkyLPHyZynbctfEx-50">
          <mxGeometry x="1" relative="1" as="geometry" />
        </mxCell>
        <mxCell id="mNAdpkyLPHyZynbctfEx-52" value="" style="endArrow=none;html=1;rounded=0;strokeColor=#DDA15E;fontColor=#FEFAE0;fillColor=#BC6C25;entryX=0.5;entryY=1;entryDx=0;entryDy=0;exitX=1;exitY=0.75;exitDx=0;exitDy=0;" edge="1" parent="1" source="mNAdpkyLPHyZynbctfEx-12" target="mNAdpkyLPHyZynbctfEx-49">
          <mxGeometry relative="1" as="geometry">
            <mxPoint x="710" y="250" as="sourcePoint" />
            <mxPoint x="870" y="250" as="targetPoint" />
          </mxGeometry>
        </mxCell>
        <mxCell id="mNAdpkyLPHyZynbctfEx-53" value="1" style="resizable=0;html=1;whiteSpace=wrap;align=right;verticalAlign=bottom;strokeColor=#DDA15E;fontColor=#FEFAE0;fillColor=#BC6C25;" connectable="0" vertex="1" parent="mNAdpkyLPHyZynbctfEx-52">
          <mxGeometry x="1" relative="1" as="geometry" />
        </mxCell>
        <mxCell id="mNAdpkyLPHyZynbctfEx-54" value="supervisor" style="edgeLabel;html=1;align=center;verticalAlign=middle;resizable=0;points=[];strokeColor=#DDA15E;fontColor=#FEFAE0;fillColor=#BC6C25;" vertex="1" connectable="0" parent="mNAdpkyLPHyZynbctfEx-52">
          <mxGeometry x="-0.0081" relative="1" as="geometry">
            <mxPoint as="offset" />
          </mxGeometry>
        </mxCell>
        <mxCell id="mNAdpkyLPHyZynbctfEx-56" value="handels" style="shape=rhombus;perimeter=rhombusPerimeter;whiteSpace=wrap;html=1;align=center;strokeColor=#DDA15E;fontColor=#FEFAE0;fillColor=#BC6C25;" vertex="1" parent="1">
          <mxGeometry x="180" y="360" width="100" height="60" as="geometry" />
        </mxCell>
        <mxCell id="mNAdpkyLPHyZynbctfEx-57" value="" style="shape=link;html=1;rounded=0;strokeColor=#DDA15E;fontColor=#FEFAE0;fillColor=#BC6C25;entryX=1;entryY=0.5;entryDx=0;entryDy=0;" edge="1" parent="1" target="mNAdpkyLPHyZynbctfEx-56">
          <mxGeometry relative="1" as="geometry">
            <mxPoint x="360" y="389.65999999999997" as="sourcePoint" />
            <mxPoint x="300" y="389.65999999999997" as="targetPoint" />
          </mxGeometry>
        </mxCell>
        <mxCell id="mNAdpkyLPHyZynbctfEx-58" value="N" style="resizable=0;html=1;whiteSpace=wrap;align=right;verticalAlign=bottom;strokeColor=#DDA15E;fontColor=#FEFAE0;fillColor=#BC6C25;" connectable="0" vertex="1" parent="mNAdpkyLPHyZynbctfEx-57">
          <mxGeometry x="1" relative="1" as="geometry" />
        </mxCell>
        <mxCell id="mNAdpkyLPHyZynbctfEx-59" value="" style="endArrow=none;html=1;rounded=0;strokeColor=#DDA15E;fontColor=#FEFAE0;fillColor=#BC6C25;" edge="1" parent="1">
          <mxGeometry relative="1" as="geometry">
            <mxPoint x="230" y="280" as="sourcePoint" />
            <mxPoint x="229.66" y="360" as="targetPoint" />
          </mxGeometry>
        </mxCell>
        <mxCell id="mNAdpkyLPHyZynbctfEx-60" value="1" style="resizable=0;html=1;whiteSpace=wrap;align=right;verticalAlign=bottom;strokeColor=#DDA15E;fontColor=#FEFAE0;fillColor=#BC6C25;" connectable="0" vertex="1" parent="mNAdpkyLPHyZynbctfEx-59">
          <mxGeometry x="1" relative="1" as="geometry" />
        </mxCell>
        <mxCell id="mNAdpkyLPHyZynbctfEx-61" value="works_with" style="shape=rhombus;perimeter=rhombusPerimeter;whiteSpace=wrap;html=1;align=center;strokeColor=#DDA15E;fontColor=#FEFAE0;fillColor=#BC6C25;" vertex="1" parent="1">
          <mxGeometry x="615" y="360" width="90" height="60" as="geometry" />
        </mxCell>
        <mxCell id="mNAdpkyLPHyZynbctfEx-62" value="" style="endArrow=none;html=1;rounded=0;strokeColor=#DDA15E;fontColor=#FEFAE0;fillColor=#BC6C25;entryX=0.5;entryY=1;entryDx=0;entryDy=0;exitX=0.5;exitY=0;exitDx=0;exitDy=0;" edge="1" parent="1" source="mNAdpkyLPHyZynbctfEx-61" target="mNAdpkyLPHyZynbctfEx-12">
          <mxGeometry relative="1" as="geometry">
            <mxPoint x="670" y="340" as="sourcePoint" />
            <mxPoint x="830" y="340" as="targetPoint" />
          </mxGeometry>
        </mxCell>
        <mxCell id="mNAdpkyLPHyZynbctfEx-63" value="M" style="resizable=0;html=1;whiteSpace=wrap;align=left;verticalAlign=bottom;strokeColor=#DDA15E;fontColor=#FEFAE0;fillColor=#BC6C25;" connectable="0" vertex="1" parent="mNAdpkyLPHyZynbctfEx-62">
          <mxGeometry x="-1" relative="1" as="geometry" />
        </mxCell>
        <mxCell id="mNAdpkyLPHyZynbctfEx-64" value="N" style="resizable=0;html=1;whiteSpace=wrap;align=right;verticalAlign=bottom;strokeColor=#DDA15E;fontColor=#FEFAE0;fillColor=#BC6C25;" connectable="0" vertex="1" parent="mNAdpkyLPHyZynbctfEx-62">
          <mxGeometry x="1" relative="1" as="geometry" />
        </mxCell>
        <mxCell id="mNAdpkyLPHyZynbctfEx-65" value="" style="shape=link;html=1;rounded=0;strokeColor=#DDA15E;fontColor=#FEFAE0;fillColor=#BC6C25;" edge="1" parent="1" source="mNAdpkyLPHyZynbctfEx-6">
          <mxGeometry relative="1" as="geometry">
            <mxPoint x="460" y="390" as="sourcePoint" />
            <mxPoint x="620" y="390" as="targetPoint" />
          </mxGeometry>
        </mxCell>
        <mxCell id="mNAdpkyLPHyZynbctfEx-66" value="N" style="resizable=0;html=1;whiteSpace=wrap;align=right;verticalAlign=bottom;strokeColor=#DDA15E;fontColor=#FEFAE0;fillColor=#BC6C25;" connectable="0" vertex="1" parent="mNAdpkyLPHyZynbctfEx-65">
          <mxGeometry x="1" relative="1" as="geometry" />
        </mxCell>
        <mxCell id="mNAdpkyLPHyZynbctfEx-67" value="sales" style="ellipse;whiteSpace=wrap;html=1;align=center;strokeColor=#DDA15E;fontColor=#FEFAE0;fillColor=#BC6C25;" vertex="1" parent="1">
          <mxGeometry x="710" y="320" width="50" height="30" as="geometry" />
        </mxCell>
        <mxCell id="mNAdpkyLPHyZynbctfEx-68" style="edgeStyle=orthogonalEdgeStyle;rounded=0;orthogonalLoop=1;jettySize=auto;html=1;entryX=0.374;entryY=0.925;entryDx=0;entryDy=0;entryPerimeter=0;strokeColor=#DDA15E;fontColor=#FEFAE0;fillColor=#BC6C25;" edge="1" parent="1" source="mNAdpkyLPHyZynbctfEx-61" target="mNAdpkyLPHyZynbctfEx-67">
          <mxGeometry relative="1" as="geometry" />
        </mxCell>
        <mxCell id="mNAdpkyLPHyZynbctfEx-78" style="edgeStyle=orthogonalEdgeStyle;rounded=0;orthogonalLoop=1;jettySize=auto;html=1;strokeColor=#DDA15E;fontColor=#FEFAE0;fillColor=#BC6C25;" edge="1" parent="1" source="mNAdpkyLPHyZynbctfEx-69" target="mNAdpkyLPHyZynbctfEx-76">
          <mxGeometry relative="1" as="geometry" />
        </mxCell>
        <mxCell id="mNAdpkyLPHyZynbctfEx-79" style="edgeStyle=orthogonalEdgeStyle;rounded=0;orthogonalLoop=1;jettySize=auto;html=1;strokeColor=#DDA15E;fontColor=#FEFAE0;fillColor=#BC6C25;" edge="1" parent="1" source="mNAdpkyLPHyZynbctfEx-69" target="mNAdpkyLPHyZynbctfEx-77">
          <mxGeometry relative="1" as="geometry" />
        </mxCell>
        <mxCell id="mNAdpkyLPHyZynbctfEx-69" value="branch_supplier" style="shape=ext;margin=3;double=1;whiteSpace=wrap;html=1;align=center;strokeColor=#DDA15E;fontColor=#FEFAE0;fillColor=#BC6C25;" vertex="1" parent="1">
          <mxGeometry x="170" y="10" width="100" height="40" as="geometry" />
        </mxCell>
        <mxCell id="mNAdpkyLPHyZynbctfEx-70" value="supplies" style="shape=rhombus;double=1;perimeter=rhombusPerimeter;whiteSpace=wrap;html=1;align=center;strokeColor=#DDA15E;fontColor=#FEFAE0;fillColor=#BC6C25;" vertex="1" parent="1">
          <mxGeometry x="170" y="90" width="100" height="60" as="geometry" />
        </mxCell>
        <mxCell id="mNAdpkyLPHyZynbctfEx-71" value="" style="shape=link;html=1;rounded=0;strokeColor=#DDA15E;fontColor=#FEFAE0;fillColor=#BC6C25;" edge="1" parent="1">
          <mxGeometry relative="1" as="geometry">
            <mxPoint x="220" y="90" as="sourcePoint" />
            <mxPoint x="220" y="50" as="targetPoint" />
          </mxGeometry>
        </mxCell>
        <mxCell id="mNAdpkyLPHyZynbctfEx-72" value="M" style="resizable=0;html=1;whiteSpace=wrap;align=left;verticalAlign=bottom;strokeColor=#DDA15E;fontColor=#FEFAE0;fillColor=#BC6C25;" connectable="0" vertex="1" parent="mNAdpkyLPHyZynbctfEx-71">
          <mxGeometry x="-1" relative="1" as="geometry" />
        </mxCell>
        <mxCell id="mNAdpkyLPHyZynbctfEx-73" value="N" style="resizable=0;html=1;whiteSpace=wrap;align=right;verticalAlign=bottom;strokeColor=#DDA15E;fontColor=#FEFAE0;fillColor=#BC6C25;" connectable="0" vertex="1" parent="mNAdpkyLPHyZynbctfEx-71">
          <mxGeometry x="1" relative="1" as="geometry" />
        </mxCell>
        <mxCell id="mNAdpkyLPHyZynbctfEx-74" value="" style="endArrow=none;html=1;rounded=0;strokeColor=#DDA15E;fontColor=#FEFAE0;fillColor=#BC6C25;entryX=0.5;entryY=1;entryDx=0;entryDy=0;" edge="1" parent="1" target="mNAdpkyLPHyZynbctfEx-70">
          <mxGeometry relative="1" as="geometry">
            <mxPoint x="230" y="240" as="sourcePoint" />
            <mxPoint x="390" y="240" as="targetPoint" />
          </mxGeometry>
        </mxCell>
        <mxCell id="mNAdpkyLPHyZynbctfEx-75" value="N" style="resizable=0;html=1;whiteSpace=wrap;align=right;verticalAlign=bottom;strokeColor=#DDA15E;fontColor=#FEFAE0;fillColor=#BC6C25;" connectable="0" vertex="1" parent="mNAdpkyLPHyZynbctfEx-74">
          <mxGeometry x="1" relative="1" as="geometry" />
        </mxCell>
        <mxCell id="mNAdpkyLPHyZynbctfEx-76" value="&lt;span style=&quot;border-bottom: 1px dotted&quot;&gt;supplier_name&lt;/span&gt;" style="ellipse;whiteSpace=wrap;html=1;align=center;strokeColor=#DDA15E;fontColor=#FEFAE0;fillColor=#BC6C25;" vertex="1" parent="1">
          <mxGeometry x="306" width="87" height="30" as="geometry" />
        </mxCell>
        <mxCell id="mNAdpkyLPHyZynbctfEx-77" value="supplier_type" style="ellipse;whiteSpace=wrap;html=1;align=center;strokeColor=#DDA15E;fontColor=#FEFAE0;fillColor=#BC6C25;" vertex="1" parent="1">
          <mxGeometry x="293" y="50" width="77" height="20" as="geometry" />
        </mxCell>
      </root>
    </mxGraphModel>
  </diagram>
</mxfile>
